<?xml version="1.0" standalone="no"?>
<!DOCTYPE svg PUBLIC "-//W3C//DTD SVG 20010904//EN"
 "http://www.w3.org/TR/2001/REC-SVG-20010904/DTD/svg10.dtd">
<svg version="1.0" xmlns="http://www.w3.org/2000/svg"
 width="660.000000pt" height="415.000000pt" viewBox="0 0 660.000000 415.000000"
 preserveAspectRatio="xMidYMid meet">

<g transform="translate(0.000000,415.000000) scale(0.100000,-0.100000)"
fill="#000000" stroke="none">
<path d="M2652 4038 c-9 -9 -12 -98 -12 -339 0 -289 -2 -328 -16 -333 -9 -3
-138 -6 -288 -6 l-273 0 -11 -25 c-9 -19 -12 -296 -12 -1058 0 -918 2 -1035
16 -1055 l15 -22 658 0 c498 0 660 3 669 12 9 9 12 200 13 792 0 430 4 790 8
800 7 19 8 18 14 -5 11 -39 156 -606 282 -1103 64 -253 121 -468 126 -478 14
-26 37 -23 241 26 101 24 228 54 283 67 111 25 152 52 141 92 -3 12 -33 126
-65 252 -64 246 -131 506 -187 725 -34 131 -76 296 -190 740 -30 118 -60 232
-65 253 -19 71 -9 72 -453 -38 -54 -14 -105 -25 -112 -25 -12 0 -14 63 -14
354 0 309 -2 357 -16 370 -13 14 -62 16 -378 16 -268 0 -365 -3 -374 -12z
m676 -1408 c2 -1237 1 -1326 -15 -1337 -12 -10 -86 -13 -284 -13 -147 0 -274
3 -283 6 -14 6 -16 132 -16 1333 0 730 3 1331 7 1334 4 4 137 6 297 5 l291 -3
3 -1325z m753 49 c88 -349 196 -773 239 -944 43 -170 75 -313 71 -318 -14 -14
-462 -120 -471 -111 -7 8 -115 427 -403 1571 -44 177 -78 325 -74 329 12 13
462 121 470 114 5 -4 80 -293 168 -641z m-1453 579 c9 -9 12 -240 12 -979 0
-866 -2 -969 -16 -983 -13 -14 -49 -16 -234 -16 -120 0 -225 3 -234 6 -14 6
-16 102 -16 988 0 541 3 986 7 989 12 13 468 8 481 -5z"/>
<path d="M2853 3750 c-30 -12 -32 -65 -4 -80 11 -6 89 -10 181 -10 170 0 200
6 200 43 0 50 -8 52 -187 54 -92 1 -178 -2 -190 -7z"/>
<path d="M2842 1568 c-7 -7 -12 -21 -12 -33 0 -42 15 -45 200 -45 185 0 200 3
200 45 0 42 -15 45 -200 45 -124 0 -180 -4 -188 -12z"/>
<path d="M3699 3071 c-80 -21 -151 -41 -157 -45 -16 -9 -15 -49 0 -64 18 -18
47 -15 201 23 176 44 187 48 187 78 0 58 -32 59 -231 8z"/>
<path d="M4067 1638 c-164 -42 -182 -53 -166 -95 13 -36 55 -30 351 48 41 11
55 37 38 69 -15 27 -37 25 -223 -22z"/>
<path d="M2188 3035 c-9 -21 -8 -28 7 -45 17 -19 31 -20 195 -20 185 0 200 3
200 45 0 42 -15 45 -207 45 l-183 0 -12 -25z"/>
<path d="M2190 1561 c-14 -27 -13 -37 6 -55 13 -13 45 -16 193 -16 186 0 201
3 201 45 0 42 -15 45 -207 45 -170 0 -183 -1 -193 -19z"/>
<path d="M250 696 l0 -145 -27 -21 -26 -20 26 -28 c27 -28 27 -30 27 -165 l0
-137 168 0 167 0 48 57 c47 58 47 58 47 133 0 72 -2 78 -30 105 -16 16 -30 32
-30 37 0 4 14 23 30 41 27 31 30 42 30 98 0 62 -2 66 -53 126 l-52 63 -162 0
-163 0 0 -144z m309 15 c38 -48 39 -70 4 -113 -40 -48 -40 -48 -135 -48 l-88
0 0 100 0 100 94 0 94 0 31 -39z m5 -282 c33 -39 34 -82 0 -126 l-25 -33 -100
0 -99 0 0 95 0 95 99 0 c99 0 99 0 125 -31z"/>
<path d="M988 786 l-58 -53 0 -91 c0 -89 0 -91 -30 -112 l-30 -21 30 -26 c29
-24 30 -27 30 -113 l0 -88 59 -51 59 -51 122 0 122 0 59 51 59 52 0 85 c0 80
2 88 28 115 l27 29 -27 22 c-27 21 -28 26 -28 112 l0 90 -59 52 -60 52 -123 0
-123 -1 -57 -53z m295 -67 l37 -30 0 -180 0 -179 -32 -30 c-31 -27 -38 -29
-115 -30 -78 0 -84 2 -118 31 l-35 31 0 178 0 179 37 30 c35 29 44 31 113 31
69 0 78 -2 113 -31z"/>
<path d="M1748 786 l-58 -53 0 -91 c0 -90 0 -91 -31 -113 l-31 -22 31 -24 c31
-24 31 -26 31 -113 l0 -88 58 -51 57 -51 123 0 124 0 59 51 59 52 0 85 c0 80
2 88 28 115 l27 29 -27 22 c-27 21 -28 26 -28 112 l0 90 -59 52 -60 52 -123 0
-123 -1 -57 -53z m295 -67 l37 -30 0 -177 0 -176 -32 -33 c-31 -32 -34 -33
-117 -33 -82 0 -86 1 -118 32 l-33 32 0 177 0 178 37 30 c35 29 44 31 113 31
69 0 78 -2 113 -31z"/>
<path d="M2450 702 l0 -138 -30 -29 -30 -29 30 -24 30 -23 0 -140 0 -139 45 0
45 0 0 103 c0 101 1 104 32 145 18 23 35 42 38 42 3 -1 52 -66 110 -145 l105
-145 54 0 c41 0 51 3 44 13 -70 92 -253 346 -253 351 0 3 48 65 107 138 58 73
111 139 116 146 7 9 -2 12 -42 12 l-51 0 -127 -160 -128 -159 -3 159 -2 160
-45 0 -45 0 0 -138z"/>
<path d="M3208 787 l-58 -52 0 -80 0 -81 59 -52 60 -52 88 0 c88 0 90 -1 121
-33 25 -26 32 -41 32 -74 0 -35 -5 -45 -34 -67 -30 -22 -44 -26 -106 -26 -65
0 -76 3 -111 31 -32 25 -39 37 -39 65 0 34 0 34 -45 34 l-45 0 0 -57 0 -58 61
-52 61 -53 117 0 117 0 62 53 62 52 0 82 0 81 -62 56 -61 56 -92 0 c-90 0 -91
0 -123 33 -45 47 -44 92 2 130 30 23 44 27 101 27 56 0 72 -4 100 -26 26 -19
35 -34 37 -62 3 -37 3 -37 48 -37 l45 0 3 51 3 52 -63 56 -63 56 -110 -1 -110
0 -57 -52z"/>
<path d="M3790 795 l0 -45 100 0 100 0 0 -97 c0 -90 -2 -99 -25 -123 l-25 -26
25 -24 c24 -23 25 -27 25 -162 l0 -138 45 0 45 0 0 137 c0 136 0 137 28 166
l27 29 -27 22 c-27 21 -28 25 -28 119 l0 97 100 0 100 0 0 45 0 45 -245 0
-245 0 0 -45z"/>
<path d="M4552 784 l-62 -56 0 -86 c0 -78 -2 -88 -25 -112 l-25 -26 25 -24
c23 -22 25 -31 25 -110 l0 -86 59 -52 60 -52 124 0 124 0 61 56 62 56 0 88 c0
83 1 89 26 105 l26 17 -26 27 c-24 25 -26 34 -26 113 l0 86 -62 56 -63 56
-121 0 -121 0 -61 -56z m295 -66 l33 -32 0 -182 0 -182 -34 -26 c-30 -23 -44
-26 -111 -26 -71 0 -80 2 -116 31 l-39 31 0 176 0 177 37 32 c36 30 43 32 118
33 76 0 80 -1 112 -32z"/>
<path d="M5260 695 l0 -144 -29 -22 -29 -22 29 -24 29 -25 0 -139 0 -139 45 0
45 0 0 140 0 140 63 0 63 0 69 -140 69 -140 48 0 c26 0 48 2 48 5 0 3 -30 65
-67 139 l-66 133 56 67 c56 66 57 69 57 128 0 58 -2 63 -52 124 l-53 63 -162
0 -163 1 0 -145z m303 21 c37 -47 36 -91 -3 -133 -29 -33 -31 -33 -120 -33
l-90 0 0 100 0 100 93 0 92 0 28 -34z"/>
<path d="M5960 696 l0 -144 -27 -20 -28 -21 28 -28 c27 -29 27 -30 27 -166 l0
-137 200 0 200 0 0 45 0 45 -155 0 -155 0 0 95 0 95 120 0 120 0 0 45 0 45
-120 0 -120 0 0 100 0 100 155 0 155 0 0 45 0 45 -200 0 -200 0 0 -144z"/>
</g>
</svg>
